<svg width="60" height="60" viewBox="0 0 60 60" fill="none" xmlns="http://www.w3.org/2000/svg">
<g clip-path="url(#clip0)">
<path d="M52.5515 13.5304L31.0439 0.923212C30.7585 0.755898 30.3877 0.663818 30 0.663818C29.6122 0.663818 29.2414 0.755898 28.956 0.923212L7.44842 13.5304C6.85646 13.8774 6.40991 14.6567 6.40991 15.343V45.3963C6.40991 46.1702 7.03949 46.7999 7.81356 46.7999H10.2301C11.0041 46.7999 11.6337 46.1702 11.6337 45.3963V19.9645C11.6337 19.7066 11.8435 19.4966 12.1016 19.4966H47.8979C48.156 19.4966 48.3658 19.7066 48.3658 19.9645V45.3963C48.3658 46.1702 48.9954 46.7999 49.7695 46.7999H52.1862C52.9602 46.7999 53.5898 46.1702 53.5898 45.3963V15.343C53.59 14.6567 53.1434 13.8774 52.5515 13.5304Z" fill="white"/>
<g clip-path="url(#clip1)">
<path fill-rule="evenodd" clip-rule="evenodd" d="M16.8518 40.3826H16.7945L14.8223 33.4017C14.7336 33.1356 14.7544 32.8435 14.8849 32.593C15.0153 32.3426 15.2397 32.16 15.511 32.0765L16.8518 31.6383V26.8174C16.8518 25.6643 17.7858 24.7304 18.9388 24.7304H22.0692V21.6H28.3301V24.7304H31.4606C32.6136 24.7304 33.5475 25.6644 33.5475 26.8174V31.6383L34.8936 32.0818C35.1649 32.16 35.3892 32.3478 35.5197 32.5983C35.6449 32.8487 35.671 33.1409 35.5823 33.407L33.6049 40.3826H33.5478L25.7218 45.6L16.8522 40.3826C16.8521 40.3826 16.852 40.3826 16.8518 40.3826ZM31.4606 26.8174H18.9388V30.9548L25.1997 28.9044L31.4606 30.9548V26.8174Z" fill="white"/>
</g>
<path d="M41.012 24.1918L36.1799 29.3591C36.0928 29.4516 36.0338 29.57 36.0108 29.6989C35.9878 29.8278 36.0017 29.9612 36.0509 30.0815C36.1 30.2018 36.182 30.3033 36.286 30.3729C36.3901 30.4425 36.5114 30.4767 36.634 30.4712H39.0228C39.1803 30.4775 39.3293 30.5489 39.4385 30.6702C39.5478 30.7916 39.6088 30.9535 39.6087 31.122V42.5492C39.6099 42.7223 39.675 42.8878 39.7898 43.0097C39.9047 43.1316 40.0599 43.2 40.2218 43.2L42.6423 43.1563C42.8022 43.1537 42.9546 43.0841 43.0668 42.9623C43.179 42.8405 43.2418 42.6765 43.2418 42.5055V31.122C43.2418 30.9494 43.3059 30.7839 43.4201 30.6618C43.5342 30.5398 43.689 30.4712 43.8504 30.4712H46.1937C46.314 30.4708 46.4315 30.4322 46.5313 30.3603C46.6311 30.2885 46.7087 30.1866 46.7544 30.0676C46.8001 29.9486 46.8118 29.8178 46.788 29.6917C46.7641 29.5656 46.7059 29.4498 46.6206 29.3591C45.2037 27.8585 42.8467 25.2603 41.8794 24.1967C41.8231 24.1349 41.7558 24.0856 41.6815 24.0519C41.6072 24.0181 41.5274 24.0005 41.4466 24C41.3659 23.9996 41.2859 24.0163 41.2113 24.0492C41.1367 24.0822 41.0689 24.1306 41.012 24.1918Z" fill="white"/>
<path d="M14.0588 57H9.9308V48.6H13.7468C14.5068 48.6 15.1068 48.784 15.5468 49.152C15.9948 49.52 16.2188 50.024 16.2188 50.664C16.2188 51.08 16.1148 51.44 15.9068 51.744C15.6988 52.048 15.4308 52.264 15.1028 52.392C15.6308 52.488 16.0588 52.736 16.3868 53.136C16.7228 53.536 16.8908 54.036 16.8908 54.636C16.8908 55.348 16.6348 55.92 16.1228 56.352C15.6188 56.784 14.9308 57 14.0588 57ZM11.2508 53.148V55.788H13.8188C14.3308 55.788 14.7308 55.672 15.0188 55.44C15.3148 55.2 15.4628 54.868 15.4628 54.444C15.4628 54.028 15.3188 53.708 15.0308 53.484C14.7428 53.26 14.3388 53.148 13.8188 53.148H11.2508ZM11.2508 49.812V51.984H13.5188C13.9588 51.984 14.2988 51.892 14.5388 51.708C14.7868 51.516 14.9108 51.244 14.9108 50.892C14.9108 50.54 14.7868 50.272 14.5388 50.088C14.2988 49.904 13.9588 49.812 13.5188 49.812H11.2508ZM20.5924 57H19.2964V51.108H23.8564V52.248H20.5924V57ZM29.208 55.992C29.336 55.992 29.452 55.964 29.556 55.908V56.892C29.38 57.02 29.128 57.084 28.8 57.084C28.128 57.084 27.716 56.804 27.564 56.244C27.028 56.852 26.304 57.156 25.392 57.156C24.76 57.156 24.232 56.98 23.808 56.628C23.392 56.284 23.184 55.8 23.184 55.176C23.184 54.552 23.412 54.072 23.868 53.736C24.316 53.392 24.876 53.22 25.548 53.22C26.26 53.22 26.888 53.372 27.432 53.676V53.352C27.432 52.496 26.856 52.068 25.704 52.068C25.032 52.068 24.412 52.244 23.844 52.596V51.456C24.428 51.12 25.144 50.952 25.992 50.952C26.824 50.952 27.484 51.152 27.972 51.552C28.468 51.944 28.716 52.496 28.716 53.208V55.404C28.716 55.588 28.76 55.732 28.848 55.836C28.944 55.94 29.064 55.992 29.208 55.992ZM27.432 55.332V54.612C26.936 54.332 26.412 54.192 25.86 54.192C25.428 54.192 25.088 54.272 24.84 54.432C24.6 54.592 24.48 54.816 24.48 55.104C24.48 55.408 24.592 55.64 24.816 55.8C25.048 55.96 25.36 56.04 25.752 56.04C26.072 56.04 26.384 55.976 26.688 55.848C26.992 55.712 27.24 55.54 27.432 55.332ZM33.0921 50.952C33.9241 50.952 34.6081 51.252 35.1441 51.852C35.6801 52.444 35.9481 53.18 35.9481 54.06C35.9481 54.932 35.6801 55.664 35.1441 56.256C34.6081 56.856 33.9241 57.156 33.0921 57.156C32.1881 57.156 31.4881 56.836 30.9921 56.196V59.4H29.6961V51.108H30.9921V51.912C31.4881 51.272 32.1881 50.952 33.0921 50.952ZM32.7441 52.092C32.3681 52.092 32.0241 52.192 31.7121 52.392C31.4001 52.584 31.1601 52.836 30.9921 53.148V54.972C31.1601 55.276 31.4001 55.528 31.7121 55.728C32.0321 55.92 32.3761 56.016 32.7441 56.016C33.2881 56.016 33.7401 55.828 34.1001 55.452C34.4601 55.068 34.6401 54.604 34.6401 54.06C34.6401 53.508 34.4601 53.044 34.1001 52.668C33.7401 52.284 33.2881 52.092 32.7441 52.092ZM41.7639 55.992C41.8919 55.992 42.0079 55.964 42.1119 55.908V56.892C41.9359 57.02 41.6839 57.084 41.3559 57.084C40.6839 57.084 40.2719 56.804 40.1199 56.244C39.5839 56.852 38.8599 57.156 37.9479 57.156C37.3159 57.156 36.7879 56.98 36.3639 56.628C35.9479 56.284 35.7399 55.8 35.7399 55.176C35.7399 54.552 35.9679 54.072 36.4239 53.736C36.8719 53.392 37.4319 53.22 38.1039 53.22C38.8159 53.22 39.4439 53.372 39.9879 53.676V53.352C39.9879 52.496 39.4119 52.068 38.2599 52.068C37.5879 52.068 36.9679 52.244 36.3999 52.596V51.456C36.9839 51.12 37.6999 50.952 38.5479 50.952C39.3799 50.952 40.0399 51.152 40.5279 51.552C41.0239 51.944 41.2719 52.496 41.2719 53.208V55.404C41.2719 55.588 41.3159 55.732 41.4039 55.836C41.4999 55.94 41.6199 55.992 41.7639 55.992ZM39.9879 55.332V54.612C39.4919 54.332 38.9679 54.192 38.4159 54.192C37.9839 54.192 37.6439 54.272 37.3959 54.432C37.1559 54.592 37.0359 54.816 37.0359 55.104C37.0359 55.408 37.1479 55.64 37.3719 55.8C37.6039 55.96 37.9159 56.04 38.3079 56.04C38.6279 56.04 38.9399 55.976 39.2439 55.848C39.5479 55.712 39.7959 55.54 39.9879 55.332ZM43.248 57H41.652L44.46 53.844L41.988 51.108H43.512L45.576 53.412V51.108H46.872V53.412L48.936 51.108H50.46L47.964 53.844L50.796 57H49.188L46.872 54.372V57H45.576V54.372L43.248 57Z" fill="white"/>
</g>
<defs>
<clipPath id="clip0">
<rect width="60" height="60" fill="white"/>
</clipPath>
<clipPath id="clip1">
<rect width="24" height="24" fill="white" transform="translate(13.2 21.6)"/>
</clipPath>
</defs>
</svg>
