<svg width="60" height="60" viewBox="0 0 60 60" fill="none" xmlns="http://www.w3.org/2000/svg">
<g clip-path="url(#clip0)">
<g clip-path="url(#clip1)">
<path d="M43.4246 37.32C42.4804 38.5673 41.2381 39.5576 39.8117 40.2C39.388 40.4116 38.873 40.2397 38.6614 39.816C38.4498 39.3923 38.6218 38.8773 39.0454 38.6657C44.3709 36.0086 42.5914 32.3391 40.8917 34.0371C38.1489 36.7783 36.2117 36.8571 36 36.8571C35.5266 36.8621 35.1388 36.4824 35.1339 36.009C35.1289 35.5356 35.5086 35.1478 35.982 35.1429C36.0446 35.1429 37.4392 34.998 39.5486 32.9443C38.8352 31.0445 38.8246 28.9523 39.5186 27.0454C40.3243 25.4349 42 22.0834 42 15.4286C42 5.19086 37.9629 0 30 0C22.0372 0 18 5.19086 18 15.4286C18 22.0834 19.6757 25.4349 20.4814 27.0454C20.9851 28.3326 21.1314 29.7319 20.9049 31.0954L20.9186 31.1083C23.1429 33.3309 24.6052 33.4286 24.6197 33.4286C25.0863 33.4511 25.4512 33.8392 25.4452 34.3063C25.4386 34.7689 25.0627 35.141 24.6 35.1429C24.3883 35.1429 22.4512 35.064 19.7083 32.3203C18.018 30.6283 16.2309 34.2866 21.5554 36.9489C21.9791 37.1607 22.1509 37.6759 21.939 38.0996C21.7272 38.5233 21.212 38.695 20.7883 38.4831C19.7356 37.981 18.7708 37.3121 17.9314 36.5023C16.1769 37.8369 14.7454 37.7794 9.91544 39.7774C19.1006 50.7343 40.9226 50.7866 50.0914 39.7774C47.1926 38.5783 44.2509 37.7143 43.4246 37.32ZM21.4286 18C20.5714 12 24 9.42857 30 9.42857C36 9.42857 39.4286 12 38.5714 18C37.7143 24 33.4286 18 30 18C26.5714 18 22.2857 24 21.4286 18ZM30 26.5714C28.2857 26.5714 26.5714 28.2857 26.5714 25.7143C26.4807 24.7801 26.8126 23.8543 27.4763 23.1906C28.14 22.5269 29.0658 22.195 30 22.2857C30.9342 22.195 31.86 22.5269 32.5237 23.1906C33.1874 23.8543 33.5193 24.7801 33.4286 25.7143C33.4286 28.2857 31.7143 26.5714 30 26.5714Z" fill="white"/>
</g>
<path d="M13.6604 57.3855C12.4044 57.3855 11.3484 56.9775 10.4924 56.1615C9.65236 55.3375 9.23236 54.2935 9.23236 53.0295C9.23236 51.7655 9.65236 50.7255 10.4924 49.9095C11.3244 49.0855 12.3804 48.6735 13.6604 48.6735C14.5164 48.6735 15.2764 48.8615 15.9404 49.2375V50.5695C15.2604 50.1295 14.5044 49.9095 13.6724 49.9095C12.7924 49.9095 12.0564 50.2055 11.4644 50.7975C10.8804 51.3815 10.5884 52.1255 10.5884 53.0295C10.5884 53.9335 10.8844 54.6815 11.4764 55.2735C12.0684 55.8575 12.8164 56.1495 13.7204 56.1495C14.6804 56.1495 15.4804 55.8935 16.1204 55.3815V56.7135C15.4164 57.1615 14.5964 57.3855 13.6604 57.3855ZM19.2955 56.2455C19.8395 56.2455 20.2995 56.0575 20.6755 55.6815C21.0435 55.3135 21.2275 54.8455 21.2275 54.2775C21.2275 53.7175 21.0435 53.2535 20.6755 52.8855C20.2995 52.5095 19.8395 52.3215 19.2955 52.3215C18.7435 52.3215 18.2795 52.5095 17.9035 52.8855C17.5355 53.2535 17.3515 53.7175 17.3515 54.2775C17.3515 54.8455 17.5355 55.3135 17.9035 55.6815C18.2795 56.0575 18.7435 56.2455 19.2955 56.2455ZM19.2955 57.3855C18.3515 57.3855 17.5755 57.0855 16.9675 56.4855C16.3595 55.8855 16.0555 55.1495 16.0555 54.2775C16.0555 53.4135 16.3595 52.6815 16.9675 52.0815C17.5755 51.4815 18.3515 51.1815 19.2955 51.1815C20.2235 51.1815 20.9955 51.4815 21.6115 52.0815C22.2195 52.6815 22.5235 53.4135 22.5235 54.2775C22.5235 55.1415 22.2195 55.8775 21.6115 56.4855C20.9955 57.0855 20.2235 57.3855 19.2955 57.3855ZM26.208 51.1815C27.04 51.1815 27.724 51.4815 28.26 52.0815C28.796 52.6735 29.064 53.4095 29.064 54.2895C29.064 55.1615 28.796 55.8935 28.26 56.4855C27.724 57.0855 27.04 57.3855 26.208 57.3855C25.304 57.3855 24.604 57.0655 24.108 56.4255V59.6295H22.812V51.3375H24.108V52.1415C24.604 51.5015 25.304 51.1815 26.208 51.1815ZM25.86 52.3215C25.484 52.3215 25.14 52.4215 24.828 52.6215C24.516 52.8135 24.276 53.0655 24.108 53.3775V55.2015C24.276 55.5055 24.516 55.7575 24.828 55.9575C25.148 56.1495 25.492 56.2455 25.86 56.2455C26.404 56.2455 26.856 56.0575 27.216 55.6815C27.576 55.2975 27.756 54.8335 27.756 54.2895C27.756 53.7375 27.576 53.2735 27.216 52.8975C26.856 52.5135 26.404 52.3215 25.86 52.3215ZM32.7438 57.2295H29.3478V51.3375H32.5638C33.1398 51.3375 33.5918 51.4775 33.9198 51.7575C34.2478 52.0295 34.4118 52.3895 34.4118 52.8375C34.4118 53.1255 34.3398 53.3855 34.1958 53.6175C34.0598 53.8415 33.8798 54.0055 33.6558 54.1095C34.4238 54.3335 34.8078 54.8375 34.8078 55.6215C34.8078 56.1255 34.6238 56.5215 34.2558 56.8095C33.8958 57.0895 33.3918 57.2295 32.7438 57.2295ZM30.6438 54.7335V56.1855H32.5158C32.8198 56.1855 33.0558 56.1215 33.2238 55.9935C33.3998 55.8655 33.4878 55.6895 33.4878 55.4655C33.4878 55.2335 33.3998 55.0535 33.2238 54.9255C33.0558 54.7975 32.8198 54.7335 32.5158 54.7335H30.6438ZM30.6438 52.3815V53.6895H32.2518C32.5318 53.6895 32.7478 53.6335 32.8998 53.5215C33.0598 53.4015 33.1398 53.2415 33.1398 53.0415C33.1398 52.6015 32.8438 52.3815 32.2518 52.3815H30.6438ZM40.7125 56.2215C40.8405 56.2215 40.9565 56.1935 41.0605 56.1375V57.1215C40.8845 57.2495 40.6325 57.3135 40.3045 57.3135C39.6325 57.3135 39.2205 57.0335 39.0685 56.4735C38.5325 57.0815 37.8085 57.3855 36.8965 57.3855C36.2645 57.3855 35.7365 57.2095 35.3125 56.8575C34.8965 56.5135 34.6885 56.0295 34.6885 55.4055C34.6885 54.7815 34.9165 54.3015 35.3725 53.9655C35.8205 53.6215 36.3805 53.4495 37.0525 53.4495C37.7645 53.4495 38.3925 53.6015 38.9365 53.9055V53.5815C38.9365 52.7255 38.3605 52.2975 37.2085 52.2975C36.5365 52.2975 35.9165 52.4735 35.3485 52.8255V51.6855C35.9325 51.3495 36.6485 51.1815 37.4965 51.1815C38.3285 51.1815 38.9885 51.3815 39.4765 51.7815C39.9725 52.1735 40.2205 52.7255 40.2205 53.4375V55.6335C40.2205 55.8175 40.2645 55.9615 40.3525 56.0655C40.4485 56.1695 40.5685 56.2215 40.7125 56.2215ZM38.9365 55.5615V54.8415C38.4405 54.5615 37.9165 54.4215 37.3645 54.4215C36.9325 54.4215 36.5925 54.5015 36.3445 54.6615C36.1045 54.8215 35.9845 55.0455 35.9845 55.3335C35.9845 55.6375 36.0965 55.8695 36.3205 56.0295C36.5525 56.1895 36.8645 56.2695 37.2565 56.2695C37.5765 56.2695 37.8885 56.2055 38.1925 56.0775C38.4965 55.9415 38.7445 55.7695 38.9365 55.5615ZM43.6171 57.2295H42.3211V52.4775H40.3291V51.3375H45.5971V52.4775H43.6171V57.2295ZM48.6868 57.2295H45.6388V51.3375H46.9348V53.1255H48.6268C49.3468 53.1255 49.9228 53.3135 50.3548 53.6895C50.7868 54.0575 51.0028 54.5535 51.0028 55.1775C51.0028 55.7615 50.7988 56.2535 50.3908 56.6535C49.9828 57.0375 49.4148 57.2295 48.6868 57.2295ZM46.9348 54.2175V56.1375H48.4828C48.8588 56.1375 49.1548 56.0535 49.3708 55.8855C49.5868 55.7095 49.6948 55.4735 49.6948 55.1775C49.6948 54.8735 49.5868 54.6375 49.3708 54.4695C49.1628 54.3015 48.8668 54.2175 48.4828 54.2175H46.9348Z" fill="white"/>
</g>
<defs>
<clipPath id="clip0">
<rect width="60" height="60" fill="white"/>
</clipPath>
<clipPath id="clip1">
<rect width="48" height="48" fill="white" transform="translate(6)"/>
</clipPath>
</defs>
</svg>
