<svg width="60" height="60" viewBox="0 0 60 60" fill="none" xmlns="http://www.w3.org/2000/svg">
<g clip-path="url(#clip0)">
<g clip-path="url(#clip1)">
<path d="M30.7168 12.853H40.0764C40.0764 12.853 41.7024 11.9116 41.7024 8.27272C41.7024 4.63386 38.5165 2 35.2099 2C31.9032 2 28.9687 5.19988 28.9687 8.39834C28.9687 11.5968 30.7168 12.853 30.7168 12.853Z" fill="white"/>
<path d="M23.3903 23.4124C23.334 23.3798 23.2868 23.3335 23.253 23.2778C23.2192 23.222 23.1999 23.1586 23.1968 23.0934C23.1938 23.0282 23.207 22.9633 23.2354 22.9046C23.2638 22.8459 23.3064 22.7953 23.3594 22.7575L28.4464 19.1045C28.5126 19.0577 28.5915 19.0326 28.6724 19.0325H45.4274C45.4498 19.0346 45.4724 19.0346 45.4948 19.0325C45.7518 18.986 47.3314 18.6091 47.4395 16.6245C47.4395 16.6132 47.4395 16.6019 47.4395 16.592C47.4395 16.3704 47.344 14.0048 45.0989 14.0048H23.9126C23.0353 14.0044 22.1727 14.2309 21.4077 14.6625C18.7526 16.1629 12.6785 19.9415 12.9466 22.9593C13.2864 26.7704 15.1216 25.7739 24.6104 31.7615C24.6958 31.8152 24.757 31.9001 24.7811 31.9984C24.8052 32.0967 24.7903 32.2005 24.7396 32.288L20.0569 40.3829C20.0385 40.4156 20.0248 40.4508 20.0162 40.4874C19.9095 40.9362 19.2973 43.9117 21.4021 44.6654C23.6402 45.4671 24.7943 44.6936 25.4557 44.0415C25.4784 44.0187 25.4982 43.9931 25.5146 43.9653C25.9541 43.2384 31.9594 33.2788 32.2543 32.4333C32.566 31.554 32.9395 29.8926 31.8162 28.7634C30.8768 27.8036 25.1608 24.4428 23.3903 23.4124Z" fill="white"/>
<path d="M12.9621 31.4849L1.13687 38.1965C1.13687 38.1965 -1.0156 40.3307 0.606125 42.4311C2.22785 44.5314 4.53757 43.7494 4.53757 43.7494C4.53757 43.7494 16.4569 37.2254 17.6742 36.5973C18.8916 35.9692 19.0151 34.6212 19.0151 34.6212L19.7649 29.9477L13.5392 26.7168L12.9621 31.4849Z" fill="white"/>
<path d="M59.8305 28.254L56.6264 25.0358L51.2151 19.5944C51.1616 19.5407 51.0981 19.498 51.0283 19.4689C50.9584 19.4398 50.8835 19.4248 50.8079 19.4248C50.7322 19.4248 50.6574 19.4398 50.5875 19.4689C50.5176 19.498 50.4541 19.5407 50.4007 19.5944L47.5995 22.4104C47.546 22.4641 47.5036 22.5279 47.4747 22.5982C47.4457 22.6684 47.4308 22.7437 47.4308 22.8197C47.4308 22.8957 47.4457 22.971 47.4747 23.0413C47.5036 23.1115 47.546 23.1753 47.5995 23.229L50.447 26.0902H36.5255C36.3729 26.0905 36.2267 26.1516 36.1188 26.2601C36.011 26.3685 35.9502 26.5155 35.9498 26.6689V30.6451C35.9498 30.7986 36.0105 30.9458 36.1184 31.0543C36.2264 31.1628 36.3728 31.2238 36.5255 31.2238H50.4709L47.6248 34.0863C47.5714 34.1399 47.529 34.2036 47.5 34.2737C47.4711 34.3439 47.4562 34.419 47.4562 34.4949C47.4562 34.5709 47.4711 34.646 47.5 34.7161C47.529 34.7863 47.5714 34.85 47.6248 34.9036L50.4217 37.7111C50.4751 37.7648 50.5384 37.8074 50.6082 37.8365C50.6779 37.8656 50.7527 37.8806 50.8282 37.8806C50.9037 37.8806 50.9785 37.8656 51.0483 37.8365C51.118 37.8074 51.1814 37.7648 51.2347 37.7111L59.8305 29.0698C59.9381 28.9616 59.9985 28.8149 59.9985 28.6619C59.9985 28.5089 59.9381 28.3622 59.8305 28.254Z" fill="white"/>
</g>
<path d="M10.1558 51.0251V49.8131H17.0318V51.0251H14.2478V58.2131H12.9278V51.0251H10.1558ZM18.692 57.2291C19.236 57.2291 19.696 57.0411 20.072 56.6651C20.44 56.2971 20.624 55.8291 20.624 55.2611C20.624 54.7011 20.44 54.2371 20.072 53.8691C19.696 53.4931 19.236 53.3051 18.692 53.3051C18.14 53.3051 17.676 53.4931 17.3 53.8691C16.932 54.2371 16.748 54.7011 16.748 55.2611C16.748 55.8291 16.932 56.2971 17.3 56.6651C17.676 57.0411 18.14 57.2291 18.692 57.2291ZM18.692 58.3691C17.748 58.3691 16.972 58.0691 16.364 57.4691C15.756 56.8691 15.452 56.1331 15.452 55.2611C15.452 54.3971 15.756 53.6651 16.364 53.0651C16.972 52.4651 17.748 52.1651 18.692 52.1651C19.62 52.1651 20.392 52.4651 21.008 53.0651C21.616 53.6651 21.92 54.3971 21.92 55.2611C21.92 56.1251 21.616 56.8611 21.008 57.4691C20.392 58.0691 19.62 58.3691 18.692 58.3691ZM26.3047 53.4611H24.0847L24.0607 54.3131C24.0527 55.1611 23.9647 55.8891 23.7967 56.4971C23.5167 57.6171 22.8407 58.1971 21.7687 58.2371C21.6007 58.2371 21.4647 58.2211 21.3607 58.1891V57.0731C21.4487 57.0971 21.5367 57.1091 21.6247 57.1091C22.0487 57.1091 22.3487 56.8931 22.5247 56.4611C22.7007 56.0211 22.7967 55.2811 22.8127 54.2411L22.8487 52.3211H27.6007V58.2131H26.3047V53.4611ZM29.6067 58.2131H28.3107V52.3211H29.6067V54.5531L31.9347 52.3211H33.5907L30.7947 54.9611L34.0107 58.2131H32.2347L29.6067 55.5491V58.2131ZM39.441 57.2051C39.569 57.2051 39.685 57.1771 39.789 57.1211V58.1051C39.613 58.2331 39.361 58.2971 39.033 58.2971C38.361 58.2971 37.949 58.0171 37.797 57.4571C37.261 58.0651 36.537 58.3691 35.625 58.3691C34.993 58.3691 34.465 58.1931 34.041 57.8411C33.625 57.4971 33.417 57.0131 33.417 56.3891C33.417 55.7651 33.645 55.2851 34.101 54.9491C34.549 54.6051 35.109 54.4331 35.781 54.4331C36.493 54.4331 37.121 54.5851 37.665 54.8891V54.5651C37.665 53.7091 37.089 53.2811 35.937 53.2811C35.265 53.2811 34.645 53.4571 34.077 53.8091V52.6691C34.661 52.3331 35.377 52.1651 36.225 52.1651C37.057 52.1651 37.717 52.3651 38.205 52.7651C38.701 53.1571 38.949 53.7091 38.949 54.4211V56.6171C38.949 56.8011 38.993 56.9451 39.081 57.0491C39.177 57.1531 39.297 57.2051 39.441 57.2051ZM37.665 56.5451V55.8251C37.169 55.5451 36.645 55.4051 36.093 55.4051C35.661 55.4051 35.321 55.4851 35.073 55.6451C34.833 55.8051 34.713 56.0291 34.713 56.3171C34.713 56.6211 34.825 56.8531 35.049 57.0131C35.281 57.1731 35.593 57.2531 35.985 57.2531C36.305 57.2531 36.617 57.1891 36.921 57.0611C37.225 56.9251 37.473 56.7531 37.665 56.5451ZM42.3457 58.2131H41.0497V53.4611H39.0577V52.3211H44.3257V53.4611H42.3457V58.2131ZM47.4153 58.2131H44.3673V52.3211H45.6633V54.1091H47.3553C48.0753 54.1091 48.6513 54.2971 49.0833 54.6731C49.5153 55.0411 49.7313 55.5371 49.7313 56.1611C49.7313 56.7451 49.5273 57.2371 49.1193 57.6371C48.7113 58.0211 48.1433 58.2131 47.4153 58.2131ZM45.6633 55.2011V57.1211H47.2113C47.5873 57.1211 47.8833 57.0371 48.0993 56.8691C48.3153 56.6931 48.4233 56.4571 48.4233 56.1611C48.4233 55.8571 48.3153 55.6211 48.0993 55.4531C47.8913 55.2851 47.5953 55.2011 47.2113 55.2011H45.6633Z" fill="white"/>
</g>
<defs>
<clipPath id="clip0">
<rect width="60" height="60" fill="white"/>
</clipPath>
<clipPath id="clip1">
<rect width="60" height="43" fill="white" transform="translate(0 2)"/>
</clipPath>
</defs>
</svg>
