<svg width="60" height="60" viewBox="0 0 60 60" fill="none" xmlns="http://www.w3.org/2000/svg">
<g clip-path="url(#clip0)">
<g clip-path="url(#clip1)">
<path d="M32.0905 49.5554C34.7234 47.8335 37.265 45.9824 39.7057 44.0092C45.9106 39.4411 51.2889 33.8924 55.618 27.5927H36.6654C36.4174 27.5912 36.1742 27.5265 35.9599 27.4049C35.7455 27.2833 35.5675 27.109 35.4435 26.8995L33.2555 23.4054L28.425 32.1405C28.3083 32.356 28.1318 32.5353 27.9158 32.6578C27.6998 32.7804 27.4529 32.8413 27.2032 32.8338C26.9287 32.8064 26.6679 32.7032 26.4515 32.5362C26.235 32.3692 26.0719 32.1453 25.9814 31.8909L21.1509 18.0256L17.798 23.9877C17.683 24.2169 17.5054 24.4107 17.2848 24.5476C17.0642 24.6847 16.8091 24.7596 16.5477 24.7642H3.93155C8.08011 33.638 17.7127 41.0975 21.293 43.9538C23.623 45.784 26.4361 47.9747 28.9082 49.4998C29.4088 49.7604 29.9614 49.9118 30.5278 49.9436C31.0716 49.9281 31.6053 49.7955 32.0905 49.5554Z" fill="white"/>
<path d="M2.85223 21.9909H15.6673L20.0147 13.6717C20.1421 13.4281 20.3404 13.2267 20.5848 13.0928C20.8292 12.959 21.1086 12.8985 21.388 12.9193C21.6675 12.9401 21.9343 13.041 22.1552 13.2094C22.3759 13.3778 22.5407 13.6062 22.6289 13.8658L27.5731 28.0361L32.1194 19.9111C32.2338 19.7115 32.3979 19.5433 32.5966 19.4221C32.7953 19.301 33.0221 19.2307 33.256 19.2178C33.4996 19.224 33.7381 19.2877 33.9509 19.4037C34.1638 19.5196 34.3446 19.6842 34.4778 19.8833L37.3194 24.7639H56.9255C57.4697 23.6406 57.9073 22.4711 58.2326 21.2698C61.1877 11.2591 53.8283 1.16516 43.94 0.998772C41.0433 0.829618 38.1673 1.57031 35.7333 3.1123C33.2993 4.6543 31.4353 6.91654 30.4145 9.56751C29.3569 6.94137 27.4845 4.70356 25.0593 3.16714C22.6342 1.63074 19.7775 0.872592 16.8891 0.998772H16.7186C6.83029 1.16516 -0.159743 11.2591 2.62491 21.2698C2.68763 21.5139 2.76351 21.7546 2.85223 21.9909Z" fill="white"/>
</g>
<path d="M2.26642 58H1.03992V50.195H4.39607C5.21374 50.195 5.84929 50.4068 6.30272 50.8306C6.77102 51.2394 7.00517 51.782 7.00517 52.4585C7.00517 53.1349 6.77102 53.6924 6.30272 54.131C5.84929 54.5621 5.21374 54.7777 4.39607 54.7777H2.26642V58ZM2.26642 51.3211V53.6515H4.29572C4.75659 53.6515 5.11711 53.5511 5.37727 53.3504C5.63744 53.1423 5.76752 52.8524 5.76752 52.4807C5.76752 52.1091 5.63744 51.8229 5.37727 51.6222C5.12454 51.4215 4.76402 51.3211 4.29572 51.3211H2.26642ZM6.64367 55.2571C6.64367 54.432 6.90384 53.7481 7.42417 53.2055C7.95194 52.6554 8.62837 52.3804 9.45347 52.3804C10.0184 52.3804 10.4979 52.5291 10.8918 52.8264C11.6649 53.3765 12.0514 54.2016 12.0514 55.3017V55.6139H7.85902C7.93335 56.0748 8.15264 56.4353 8.51687 56.6954C8.88854 56.9556 9.35684 57.0857 9.92177 57.0857C10.5462 57.0857 11.1334 56.9222 11.6835 56.5951V57.6098C11.178 57.9666 10.5053 58.1449 9.66532 58.1449C8.82535 58.1449 8.10804 57.8773 7.51337 57.3421C6.93357 56.8069 6.64367 56.1119 6.64367 55.2571ZM7.87017 54.6996H10.8361C10.8212 54.3577 10.6911 54.0566 10.4458 53.7965C10.1931 53.5289 9.84372 53.395 9.39772 53.395C8.97402 53.395 8.62094 53.5214 8.33847 53.7742C8.06344 54.0194 7.90734 54.3279 7.87017 54.6996ZM17.4956 57.0634C17.6145 57.0634 17.7223 57.0374 17.8189 56.9853V57.8996C17.6554 58.0186 17.4212 58.078 17.1165 58.078C16.4921 58.078 16.1093 57.8179 15.968 57.2976C15.47 57.8625 14.7973 58.1449 13.9499 58.1449C13.3626 58.1449 12.872 57.9814 12.4781 57.6543C12.0915 57.3347 11.8983 56.885 11.8983 56.3052C11.8983 55.7254 12.1101 55.2794 12.5338 54.9672C12.9501 54.6476 13.4704 54.4877 14.0948 54.4877C14.7564 54.4877 15.3399 54.629 15.8454 54.9114V54.6104C15.8454 53.815 15.3102 53.4174 14.2398 53.4174C13.6154 53.4174 13.0393 53.5809 12.5115 53.9079V52.8487C13.0542 52.5365 13.7194 52.3804 14.5074 52.3804C15.2804 52.3804 15.8937 52.5662 16.3471 52.9379C16.808 53.3021 17.0384 53.815 17.0384 54.4766V56.5171C17.0384 56.688 17.0793 56.8218 17.1611 56.9185C17.2503 57.0151 17.3618 57.0634 17.4956 57.0634ZM15.8454 56.4501V55.7811C15.3845 55.521 14.8976 55.3909 14.3847 55.3909C13.9833 55.3909 13.6674 55.4652 13.437 55.6139C13.214 55.7626 13.1025 55.9707 13.1025 56.2383C13.1025 56.5208 13.2065 56.7363 13.4147 56.885C13.6302 57.0337 13.9201 57.108 14.2844 57.108C14.5817 57.108 14.8716 57.0485 15.1541 56.9296C15.4365 56.8032 15.667 56.6434 15.8454 56.4501ZM19.1534 58H17.9492V52.5253H19.1534V54.6661H21.9297V52.5253H23.1339V58H21.9297V55.7254H19.1534V58ZM24.9195 58H23.7933V52.5253H24.9975V56.2383L27.9523 52.5253H29.0784V58H27.8742V54.2759L24.9195 58ZM30.8951 58H29.7355V52.5253H30.9174L32.7906 54.8L34.6749 52.5253H35.8568V58H34.6972V54.1644L33.0247 56.1826H32.5564L30.8951 54.1644V58ZM41.6562 57.0634C41.7752 57.0634 41.883 57.0374 41.9796 56.9853V57.8996C41.8161 58.0186 41.5819 58.078 41.2771 58.078C40.6527 58.078 40.2699 57.8179 40.1287 57.2976C39.6307 57.8625 38.9579 58.1449 38.1105 58.1449C37.5233 58.1449 37.0327 57.9814 36.6387 57.6543C36.2522 57.3347 36.0589 56.885 36.0589 56.3052C36.0589 55.7254 36.2708 55.2794 36.6945 54.9672C37.1108 54.6476 37.6311 54.4877 38.2555 54.4877C38.9171 54.4877 39.5006 54.629 40.006 54.9114V54.6104C40.006 53.815 39.4708 53.4174 38.4004 53.4174C37.776 53.4174 37.2 53.5809 36.6722 53.9079V52.8487C37.2148 52.5365 37.8801 52.3804 38.668 52.3804C39.4411 52.3804 40.0544 52.5662 40.5078 52.9379C40.9687 53.3021 41.1991 53.815 41.1991 54.4766V56.5171C41.1991 56.688 41.24 56.8218 41.3217 56.9185C41.4109 57.0151 41.5224 57.0634 41.6562 57.0634ZM40.006 56.4501V55.7811C39.5452 55.521 39.0583 55.3909 38.5454 55.3909C38.144 55.3909 37.8281 55.4652 37.5976 55.6139C37.3746 55.7626 37.2631 55.9707 37.2631 56.2383C37.2631 56.5208 37.3672 56.7363 37.5753 56.885C37.7909 57.0337 38.0808 57.108 38.445 57.108C38.7424 57.108 39.0323 57.0485 39.3147 56.9296C39.5972 56.8032 39.8276 56.6434 40.006 56.4501ZM48.1754 59.5053H47.0047V58H42.1098V52.5253H43.314V56.9407H46.0123V52.5253H47.2165V56.9407H48.1754V59.5053ZM49.4503 58H48.3242V52.5253H49.5284V56.2383L52.4831 52.5253H53.6093V58H52.4051V54.2759L49.4503 58ZM55.1807 58H53.7981L55.3479 55.8703C54.9614 55.7737 54.6603 55.5842 54.4448 55.3017C54.2366 55.0192 54.1326 54.6699 54.1326 54.2536C54.1326 53.7258 54.3072 53.3059 54.6566 52.9936C55.0134 52.6814 55.5263 52.5253 56.1953 52.5253H59.072V58H57.8678V56.1156H56.541L55.1807 58ZM56.3626 55.1456H57.8678V53.4954H56.3626C56.0429 53.4954 55.7939 53.5697 55.6155 53.7184C55.4445 53.8596 55.3591 54.0603 55.3591 54.3205C55.3591 54.5807 55.4445 54.7851 55.6155 54.9338C55.7939 55.075 56.0429 55.1456 56.3626 55.1456Z" fill="white"/>
</g>
<defs>
<clipPath id="clip0">
<rect width="60" height="60" fill="white"/>
</clipPath>
<clipPath id="clip1">
<rect width="57" height="49" fill="white" transform="translate(2 1)"/>
</clipPath>
</defs>
</svg>
