<svg width="60" height="60" viewBox="0 0 60 60" fill="none" xmlns="http://www.w3.org/2000/svg">
<g clip-path="url(#clip0)">
<path d="M58.1186 10.5026C57.55 10.1764 56.905 10.0134 56.2525 10.0308C55.5999 10.0482 54.9642 10.2455 54.4132 10.6015L51.4533 12.4829C48.4869 11.3887 45.4994 10.1692 42.5662 8.8521C40.1479 7.76618 38.3838 6.89275 36.9663 6.19093C33.8485 4.64737 32.4247 3.94114 29.9766 4.00383C27.5859 4.06342 26.1975 4.82006 23.8972 6.0727C22.5417 6.81087 20.8547 7.72924 18.3692 8.85258C15.1884 10.2891 11.9168 11.5081 8.57632 12.5014L5.58676 10.6015C5.03578 10.2455 4.4001 10.0482 3.74754 10.0308C3.09499 10.0134 2.45001 10.1764 1.88142 10.5026C1.30812 10.82 0.830326 11.2898 0.498998 11.8618C0.16767 12.4338 -0.00476091 13.0866 0.000100004 13.7504V24.9786C-0.00186539 25.6088 0.154814 26.229 0.455222 26.7802C0.75563 27.3314 1.18977 27.7953 1.71631 28.1276L7.50008 31.8039V32.7867C7.49871 33.4844 7.64853 34.1738 7.93887 34.806C8.22922 35.4381 8.65296 35.9974 9.17995 36.4441C19.1485 44.9022 29.8927 45 30 45C39.4497 45 46.5969 40.3243 50.9287 36.4018C51.4226 35.9543 51.8179 35.4057 52.0887 34.792C52.3595 34.1783 52.4996 33.5133 52.4999 32.8406V32.1808L58.2836 28.5046C58.8102 28.1724 59.2443 27.7085 59.5448 27.1573C59.8452 26.6061 60.0019 25.9859 59.9999 25.3557V13.7504C60.0048 13.0866 59.8323 12.4338 59.501 11.8618C59.1697 11.2898 58.6919 10.82 58.1186 10.5026ZM14.3834 27.8964C19.3875 29.7532 24.6733 30.7018 30 30.699C35.3267 30.7019 40.6126 29.7532 45.6166 27.8964L46.2584 29.6879C41.0487 31.6211 35.5457 32.6088 30 32.6058C24.4544 32.6087 18.9514 31.6211 13.7417 29.688L14.3834 27.8964ZM13.7416 21.1073L14.3834 19.3158C19.3875 21.1726 24.6733 22.1212 30 22.1184C35.3267 22.1213 40.6126 21.1726 45.6166 19.3158L46.2584 21.1073C41.0487 23.0405 35.5457 24.0282 30 24.0252C24.4544 24.0281 18.9514 23.0405 13.7417 21.1075L13.7416 21.1073ZM2.71005 26.5105C2.45389 26.3488 2.24269 26.1232 2.09653 25.8551C1.95038 25.5869 1.87415 25.2852 1.87509 24.9786V13.7504C1.87511 13.428 1.96001 13.1114 2.12096 12.8335C2.28191 12.5557 2.51306 12.3267 2.79041 12.1704C3.06775 12.0141 3.38118 11.9361 3.69816 11.9446C4.01514 11.9531 4.32412 12.0477 4.59301 12.2186L7.50008 14.0662V29.5549L2.71005 26.5105ZM58.1249 25.3557C58.1259 25.6623 58.0497 25.964 57.9035 26.2321C57.7573 26.5003 57.5461 26.7259 57.29 26.8876L52.4999 29.9321V14.0662L55.407 12.219C55.6758 12.0482 55.9848 11.9536 56.3017 11.9451C56.6187 11.9366 56.9321 12.0145 57.2094 12.1708C57.4867 12.327 57.7179 12.5559 57.8789 12.8337C58.0398 13.1115 58.1248 13.428 58.1249 13.7504V25.3557Z" fill="white"/>
<path d="M15.9116 58H14.5916V49.6H15.9356L18.6596 53.38L21.3596 49.6H22.6796V58H21.3596V51.616L19.0196 54.784H18.2516L15.9116 51.616V58ZM29.0355 56.992C29.1635 56.992 29.2795 56.964 29.3835 56.908V57.892C29.2075 58.02 28.9555 58.084 28.6275 58.084C27.9555 58.084 27.5435 57.804 27.3915 57.244C26.8555 57.852 26.1315 58.156 25.2195 58.156C24.5875 58.156 24.0595 57.98 23.6355 57.628C23.2195 57.284 23.0115 56.8 23.0115 56.176C23.0115 55.552 23.2395 55.072 23.6955 54.736C24.1435 54.392 24.7035 54.22 25.3755 54.22C26.0875 54.22 26.7155 54.372 27.2595 54.676V54.352C27.2595 53.496 26.6835 53.068 25.5315 53.068C24.8595 53.068 24.2395 53.244 23.6715 53.596V52.456C24.2555 52.12 24.9715 51.952 25.8195 51.952C26.6515 51.952 27.3115 52.152 27.7995 52.552C28.2955 52.944 28.5435 53.496 28.5435 54.208V56.404C28.5435 56.588 28.5875 56.732 28.6755 56.836C28.7715 56.94 28.8915 56.992 29.0355 56.992ZM27.2595 56.332V55.612C26.7635 55.332 26.2395 55.192 25.6875 55.192C25.2555 55.192 24.9155 55.272 24.6675 55.432C24.4275 55.592 24.3075 55.816 24.3075 56.104C24.3075 56.408 24.4195 56.64 24.6435 56.8C24.8755 56.96 25.1875 57.04 25.5795 57.04C25.8995 57.04 26.2115 56.976 26.5155 56.848C26.8195 56.712 27.0675 56.54 27.2595 56.332ZM32.2836 58.156C31.3956 58.156 30.6436 57.864 30.0276 57.28C29.4116 56.688 29.1036 55.94 29.1036 55.036C29.1036 54.132 29.4116 53.392 30.0276 52.816C30.6516 52.24 31.4076 51.952 32.2956 51.952C32.9676 51.952 33.5596 52.088 34.0716 52.36V53.476C33.5356 53.22 33.0076 53.092 32.4876 53.092C31.8956 53.092 31.3996 53.276 30.9996 53.644C30.5996 54.02 30.3996 54.488 30.3996 55.048C30.3996 55.616 30.5996 56.088 30.9996 56.464C31.3996 56.832 31.8956 57.016 32.4876 57.016C33.1196 57.016 33.6796 56.868 34.1676 56.572V57.676C33.6076 57.996 32.9796 58.156 32.2836 58.156ZM35.914 58H34.618V52.108H35.914V54.34L38.242 52.108H39.898L37.102 54.748L40.318 58H38.542L35.914 55.336V58ZM45.7483 56.992C45.8763 56.992 45.9923 56.964 46.0963 56.908V57.892C45.9203 58.02 45.6683 58.084 45.3403 58.084C44.6683 58.084 44.2563 57.804 44.1043 57.244C43.5683 57.852 42.8443 58.156 41.9323 58.156C41.3003 58.156 40.7723 57.98 40.3483 57.628C39.9323 57.284 39.7243 56.8 39.7243 56.176C39.7243 55.552 39.9523 55.072 40.4083 54.736C40.8563 54.392 41.4163 54.22 42.0883 54.22C42.8003 54.22 43.4283 54.372 43.9723 54.676V54.352C43.9723 53.496 43.3963 53.068 42.2443 53.068C41.5723 53.068 40.9523 53.244 40.3843 53.596V52.456C40.9683 52.12 41.6843 51.952 42.5323 51.952C43.3643 51.952 44.0243 52.152 44.5123 52.552C45.0083 52.944 45.2563 53.496 45.2563 54.208V56.404C45.2563 56.588 45.3003 56.732 45.3883 56.836C45.4843 56.94 45.6043 56.992 45.7483 56.992ZM43.9723 56.332V55.612C43.4763 55.332 42.9523 55.192 42.4003 55.192C41.9683 55.192 41.6283 55.272 41.3803 55.432C41.1403 55.592 41.0203 55.816 41.0203 56.104C41.0203 56.408 41.1323 56.64 41.3563 56.8C41.5883 56.96 41.9003 57.04 42.2923 57.04C42.6123 57.04 42.9243 56.976 43.2283 56.848C43.5323 56.712 43.7803 56.54 43.9723 56.332Z" fill="white"/>
</g>
<defs>
<clipPath id="clip0">
<rect width="60" height="60" fill="white"/>
</clipPath>
</defs>
</svg>
