<svg height="463pt" viewBox="-36 1 463 463.99945" width="463pt" xmlns="http://www.w3.org/2000/svg"><path d="m61.613281 223.40625 209.382813-209.382812c18.699218-18.699219 49.011718-18.699219 67.710937 0l39.769531 39.769531c18.695313 18.695312 18.695313 49.011719 0 67.710937l-.082031.078125-60-60c-7.496093-7.496093-19.652343-7.496093-27.152343 0l-195.695313 195.769531c-9.371094 9.367188-24.5625 9.367188-33.933594 0-9.375-9.371093-9.375-24.570312 0-33.945312zm0 0" fill="#b0b0ae"/><path d="m126.089844 113.671875 23.761718-23.761719c4.371094-4.371094 11.464844-4.371094 15.839844 0l52.042969 52.046875c4.371094 4.371094 4.371094 11.464844 0 15.835938l-23.761719 23.761719c-4.371094 4.371093-11.464844 4.371093-15.839844 0l-52.042968-52.042969c-4.371094-4.375-4.371094-11.46875 0-15.839844zm0 0" fill="#5c5c5b"/><path d="m158.050781 229.597656c-6.917969-13.835937-4.210937-30.550781 6.730469-41.496094l4.308594-4.300781 34.136718 34.132813 45.058594-45.453125-79.203125-79.199219 45.257813-45.234375 118.800781 118.792969-27.039063 27.054687-21.648437 21.648438-235.65625 240c-5.296875 5.410156-12.550781 8.457031-20.121094 8.457031-15.5625 0-28.175781-12.617188-28.175781-28.175781v-.265625c0-7.40625 2.914062-14.515625 8.113281-19.792969l143.832031-145.839844c10.019532-10.992187 12.25-27.015625 5.605469-40.328125zm0 0" fill="#dd4a43"/><path d="m25.882812 427.3125 16.96875-16.96875 11.3125 11.3125-16.96875 16.972656zm0 0" fill="#ba433d"/><path d="m355.765625 144.21875-22.625 22.625-50.914063-50.910156 22.628907-22.628906zm0 0" fill="#b0b0ae"/><path d="m135.144531 138.5625 22.625-22.628906 11.316407 11.3125-22.628907 22.628906zm0 0" fill="#4a4a49"/><path d="m157.78125 161.191406 22.628906-22.625 11.3125 11.3125-22.625 22.628906zm0 0" fill="#4a4a49"/><g fill="#919190"><path d="m112.105469 173.65625 11.316406-11.3125 17.367187 17.375-11.316406 11.3125zm0 0"/><path d="m89.464844 196.28125 11.316406-11.3125 17.371094 17.371094-11.3125 11.3125zm0 0"/><path d="m66.84375 218.914062 11.308594-11.316406 17.378906 17.367188-11.3125 11.316406zm0 0"/></g></svg>